<svg xmlns="http://www.w3.org/2000/svg" width="760" height="560" viewBox="0 0 760 560" role="img" aria-label="Folioman — Networth Tracker">
  <defs>
    <linearGradient id="lk-bg" x1="0" y1="0" x2="1" y2="1">
      <stop offset="0" stop-color="#0B1120"/>
      <stop offset="1" stop-color="#16263B"/>
    </linearGradient>
    <linearGradient id="lk-bars" x1="0" y1="0" x2="0.4" y2="1">
      <stop offset="0" stop-color="#5EEAD4"/>
      <stop offset="1" stop-color="#0D9488"/>
    </linearGradient>
  </defs>
  <rect width="760" height="560" rx="36" fill="url(#lk-bg)"/>
  <!-- mark (bare: white F + teal bars) -->
  <g transform="translate(179,44) scale(0.72)">
    <g fill="#ffffff">
      <rect x="148" y="118" width="66" height="276" rx="20"/>
      <path d="M150 118 L410 118 L350 182 L150 182 Z"/>
      <path d="M150 214 L320 214 L286 266 L150 266 Z"/>
    </g>
    <path d="M230 392 L230 286 L296 346 L296 392 Z" fill="url(#lk-bars)"/>
    <path d="M300 392 L300 346 L366 286 L366 392 Z" fill="url(#lk-bars)"/>
  </g>
  <!-- wordmark (IBM Plex Sans — the bundled UI typeface; inline this SVG so the font applies, or outline for standalone export) -->
  <text x="380" y="430" text-anchor="middle" font-family="'IBM Plex Sans',sans-serif" font-weight="600" font-size="82" letter-spacing="-1" fill="#ffffff">folioman</text>
  <!-- tagline with flanking rules -->
  <line x1="138" y1="478" x2="190" y2="478" stroke="#2DD4BF" stroke-width="2"/>
  <text x="380" y="485" text-anchor="middle" font-family="'IBM Plex Sans',sans-serif" font-weight="500" font-size="22" letter-spacing="8" fill="#2DD4BF">NETWORTH TRACKER</text>
  <line x1="570" y1="478" x2="622" y2="478" stroke="#2DD4BF" stroke-width="2"/>
</svg>
