<svg xmlns="http://www.w3.org/2000/svg" width="760" height="560" viewBox="0 0 760 560" role="img" aria-label="Folioman — Networth Tracker">
  <defs>
    <linearGradient id="lk-bg" x1="0" y1="0" x2="1" y2="1">
      <stop offset="0" stop-color="#0B1120"/>
      <stop offset="1" stop-color="#16263B"/>
    </linearGradient>
    <linearGradient id="lk-bars" x1="0" y1="0" x2="0.35" y2="1">
      <stop offset="0" stop-color="#7DF1DE"/>
      <stop offset="1" stop-color="#2DD4BF"/>
    </linearGradient>
  </defs>
  <rect width="760" height="560" rx="36" fill="url(#lk-bg)"/>
  <!-- mark (bare: white F + teal bars) — matches logo.svg geometry -->
  <g transform="translate(212,44) scale(0.6)">
    <g fill="#ffffff">
      <rect x="118" y="92" width="78" height="328" rx="24"/>
      <path d="M120 92 L444 92 L372 168 L120 168 Z"/>
      <path d="M120 198 L352 198 L312 262 L120 262 Z"/>
    </g>
    <path d="M210 420 L210 282 L292 352 L292 420 Z" fill="url(#lk-bars)"/>
    <path d="M320 420 L320 352 L402 282 L402 420 Z" fill="url(#lk-bars)"/>
  </g>
  <!-- wordmark (IBM Plex Sans — the bundled UI typeface; inline this SVG so the font applies, or outline for standalone export) -->
  <text x="380" y="430" text-anchor="middle" font-family="'IBM Plex Sans',sans-serif" font-weight="600" font-size="82" letter-spacing="-1" fill="#ffffff">folioman</text>
  <!-- tagline with flanking rules -->
  <line x1="138" y1="478" x2="190" y2="478" stroke="#2DD4BF" stroke-width="2"/>
  <text x="380" y="485" text-anchor="middle" font-family="'IBM Plex Sans',sans-serif" font-weight="500" font-size="22" letter-spacing="8" fill="#2DD4BF">NETWORTH TRACKER</text>
  <line x1="570" y1="478" x2="622" y2="478" stroke="#2DD4BF" stroke-width="2"/>
</svg>
